<svg xmlns="http://www.w3.org/2000/svg" viewBox="0 0 64 64">
<g stroke="#211910" stroke-width="1.5" stroke-linejoin="round"><path d="M32.00,28.00 L32.00,8.00 A20.00,20.00 0 0 1 49.32,18.00 Z" fill="#00737F"/><path d="M32.00,28.00 L49.32,18.00 A20.00,20.00 0 0 1 49.32,38.00 Z" fill="#FCEDCE"/><path d="M32.00,28.00 L49.32,38.00 A20.00,20.00 0 0 1 32.00,48.00 Z" fill="#E2757B"/><path d="M32.00,28.00 L32.00,48.00 A20.00,20.00 0 0 1 14.68,38.00 Z" fill="#FCEDCE"/><path d="M32.00,28.00 L14.68,38.00 A20.00,20.00 0 0 1 14.68,18.00 Z" fill="#CAAA56"/><path d="M32.00,28.00 L14.68,18.00 A20.00,20.00 0 0 1 32.00,8.00 Z" fill="#FCEDCE"/></g><circle cx="32" cy="28" r="20" fill="none" stroke="#211910" stroke-width="1.95"/>
<line x1="32" y1="48" x2="32" y2="58" stroke="#956733" stroke-width="3.5" stroke-linecap="round"/>
</svg>